<svg xmlns="http://www.w3.org/2000/svg" viewBox="0 0 641.62 212.72"><defs><style>.ae8d9293-1897-46be-8250-f45040ee265b{fill:#fff;}</style></defs><g id="e01b2a9c-e114-4944-b3bb-f02725028fe6" data-name="katman 1"><path class="ae8d9293-1897-46be-8250-f45040ee265b" d="M337.64,113.72v25.37c0,20.09-15.39,27.35-34.28,27.35H288.08a1.42,1.42,0,0,1-1.53-1.37c0-1.38,1.52-3.73,1.52-6.67l0-63.68c0-2.94-1.54-5.3-1.54-6.67A1.32,1.32,0,0,1,288,86.69c2.52.2,4.59.39,6.88.39s4.92-.2,8.41-.39C325.18,85.11,337.63,96.67,337.64,113.72Zm-34.28,36.95a1.6,1.6,0,0,0,1.64,1.56c11.58.59,17.36-4.31,17.36-14.11v-24.4c0-9.31-5.9-14-17.37-13.42a1.61,1.61,0,0,0-1.64,1.57Z"/><path class="ae8d9293-1897-46be-8250-f45040ee265b" d="M391.61,147.43c0,2.94,1.53,5.29,1.53,6.66a1.35,1.35,0,0,1-1.52,1.37H375.78a1.43,1.43,0,0,1-1.53-1.37c0-1.37,1.53-3.73,1.53-6.67,0-7.54,1.74-16-8.75-18l-3.28-.69c-1-.19-1.63.3-1.63,1.18v17.54c0,2.94,1.53,5.29,1.53,6.66a1.35,1.35,0,0,1-1.52,1.37H346.84a1.42,1.42,0,0,1-1.53-1.37c0-1.38,1.52-3.73,1.52-6.67l0-52.81c0-2.94-1.53-5.29-1.53-6.66a1.31,1.31,0,0,1,1.53-1.37c3.17.19,5.9.29,8.52.29,3.27,0,6.55-.1,10.92-.3,18-.69,27.31,6.07,27.31,19.88,0,7.15-3.16,12.15-8,16.47-.33.29-.44.68-.11,1C389.75,128.52,391.61,135.87,391.61,147.43Zm-13.77-39.78c0-7.84-7.65-7.93-14.1-7.93a1.48,1.48,0,0,0-1.64,1.47v12.93a1.85,1.85,0,0,0,1.53,1.87l5.13,1.27a5.76,5.76,0,0,0,3.17-.1C375.22,115.88,377.84,111.57,377.84,107.65Z"/><path class="ae8d9293-1897-46be-8250-f45040ee265b" d="M418.15,147.1c-.65,2.94.77,5.29.44,6.66a1.7,1.7,0,0,1-1.74,1.38h-16.5c-1,0-1.42-.59-1.2-1.37.33-1.37,2.29-3.72,3.06-6.66l13.3-52.53c.76-2.93-.33-5.29,0-6.66a1.82,1.82,0,0,1,1.85-1.37h22.29a1.82,1.82,0,0,1,1.85,1.37c.33,1.37-.76,3.73,0,6.67l13.34,52.51c.77,2.94,2.73,5.29,3.06,6.66.22.79-.22,1.37-1.2,1.37H440.22a1.71,1.71,0,0,1-1.75-1.37c-.33-1.37,1.09-3.73.44-6.67l-1.21-5.68a2.45,2.45,0,0,0-2-1.76L422,136.91a1.56,1.56,0,0,0-2,1.18Zm14.41-20.68c1,.2,1.53-.29,1.31-1.17l-3.94-19.11c-.33-1.37-.87-2.15-1.42-2.15s-1.09.68-1.42,2.15L423.6,123c-.21.88.33,1.56,1.32,1.76Z"/><path class="ae8d9293-1897-46be-8250-f45040ee265b" d="M487.62,156.8c-18.24,0-28.51-12.34-28.52-34.09,0-22.24,12-36.16,31.22-36.17,15.19,0,19.45,9.7,23.93,13.32.87.69.22,2-.33,2.35l-9.28,7a3.27,3.27,0,0,1-1.75.88c-1,0-1.31-1.07-1.74-2.35-1.75-5-5.69-7.93-10.93-7.93-9,0-15.18,9.61-15.17,23.52s5.47,20.08,13.88,20.08,11.9-6.37,13.1-12.84c.11-.88-.44-1.47-1.42-1.47h-6c-3.28,0-5.9,1.38-7.43,1.38-1.2,0-1.53-.69-1.31-2.25l1.85-10.68c.22-1.28,1.2-2,2.84-1.77,5.79.49,10.49,1.27,14.75,1.27a26.35,26.35,0,0,0,8.63-1.28c.87-.29,1.64.59,1.64,1.47v30.67c0,2.94,1.53,5.29,1.53,6.66a1.36,1.36,0,0,1-1.53,1.37h-13.1a1.42,1.42,0,0,1-1.53-1.37,5.5,5.5,0,0,1,.43-1.57c.11-.49,0-.59-.44-.29A21.62,21.62,0,0,1,487.62,156.8Z"/><path class="ae8d9293-1897-46be-8250-f45040ee265b" d="M552.8,86.54c17.58,0,29.17,13.32,29.17,34.58,0,18.91-9.59,34.59-29.14,34.6-17.7,0-29.17-13.22-29.18-34.58S535.1,86.55,552.8,86.54Zm0,55.46c8.52,0,13.32-7.94,13.32-20.88s-4.82-20.86-13.34-20.86-13.32,7.94-13.31,20.87S544.3,142,552.82,142Z"/><path class="ae8d9293-1897-46be-8250-f45040ee265b" d="M624.77,94.58c0-2.94-1.53-5.29-1.53-6.66a1.37,1.37,0,0,1,1.53-1.37h15.29c1,0,1.53.49,1.53,1.37,0,1.37-1.53,3.73-1.53,6.67l0,63.29c0,2.94,1.53,5.29,1.53,6.66a1.36,1.36,0,0,1-1.53,1.38H626.44a2.54,2.54,0,0,1-2.29-1.37l-17.17-41c-.33-.88-.55-.78-.55.1l0,34.29c0,2.94,1.53,5.29,1.53,6.67a1.37,1.37,0,0,1-1.53,1.37H591.16a1.42,1.42,0,0,1-1.53-1.37c0-1.37,1.53-3.72,1.53-6.66l0-63.3c0-2.94-1.53-5.29-1.53-6.66a1.37,1.37,0,0,1,1.53-1.37h13.65a2.57,2.57,0,0,1,2.3,1.37l17,38.8c.33.78.66.78.66-.1Z"/><path class="ae8d9293-1897-46be-8250-f45040ee265b" d="M380.66,53.89c0,9.14,3.61,14.87,9.45,14.89,6.52,0,9.31-6.36,9.39-6.63.23-.8.68-1.27,1.2-1.27a2.24,2.24,0,0,1,1.5.81l5.07,4.86a1.35,1.35,0,0,1,.22,1.61,19.87,19.87,0,0,1-17,9.56c-12.81,0-20.79-8.94-20.73-23.19.06-15.39,8-24.84,20.7-24.8,7.26,0,12.65,3.27,15.69,9.4a1.35,1.35,0,0,1-.23,1.61l-6.39,4.75c-.75.6-1.35.67-1.8.33-.82-.61-.94-6.66-7.83-6.68C384.24,39.12,380.69,44.82,380.66,53.89Z"/><path class="ae8d9293-1897-46be-8250-f45040ee265b" d="M421.78,72c-.46,2,.51,3.63.28,4.57a1.18,1.18,0,0,1-1.21.94l-11.31,0c-.67,0-1-.4-.82-.94.23-.94,1.59-2.55,2.12-4.56l9.28-36c.54-2-.21-3.63,0-4.57a1.26,1.26,0,0,1,1.28-.94l15.28,0a1.25,1.25,0,0,1,1.27.94c.22,1-.53,2.56,0,4.57l9,36.05c.51,2,1.85,3.64,2.08,4.58.14.54-.16.94-.83.94l-11.31,0a1.17,1.17,0,0,1-1.2-.94c-.22-.94.76-2.55.32-4.57l-.81-3.9a1.7,1.7,0,0,0-1.34-1.22L424.43,65a1.1,1.1,0,0,0-1.36.8Zm9.94-14.15c.68.14,1-.19.9-.8L430,43.91c-.22-.94-.59-1.48-1-1.48s-.75.46-1,1.47l-2.44,11.55a1,1,0,0,0,.89,1.22Z"/><path class="ae8d9293-1897-46be-8250-f45040ee265b" d="M483.46,72.17c0,2,1,3.64,1,4.58a.93.93,0,0,1-1.06.93l-10.86,0a1,1,0,0,1-1-1c0-.94,1.06-2.54,1.06-4.56,0-5.18,1.25-11-5.94-12.39l-2.24-.47c-.68-.14-1.13.19-1.13.8l0,12c0,2,1,3.63,1,4.57a.94.94,0,0,1-1.05.94l-10.49,0a1,1,0,0,1-1.05-.94c0-.94,1.06-2.55,1.07-4.57l.15-36.22c0-2-1-3.63-1-4.57a.9.9,0,0,1,1.05-.94c2.17.14,4,.21,5.84.22,2.25,0,4.5,0,7.5-.18C478.61,30,485,34.61,484.92,44.09c0,4.9-2.21,8.32-5.51,11.27-.23.2-.31.47-.08.67C482.24,59.2,483.49,64.24,483.46,72.17Zm-9.33-27.31c0-5.38-5.22-5.46-9.64-5.48a1,1,0,0,0-1.13,1l0,8.87a1.27,1.27,0,0,0,1.05,1.28l3.51.88a3.87,3.87,0,0,0,2.18-.06C472.31,50.5,474.12,47.55,474.13,44.86Z"/><path class="ae8d9293-1897-46be-8250-f45040ee265b" d="M522,49.05l0,10c-.05,12.57-7,18.73-21.35,18.68l-10.48,0a1,1,0,0,1-1.05-.95c0-.94,1.06-2.55,1.07-4.56L490.28,36c0-2-1-3.63-1-4.57a1,1,0,0,1,1.06-.94,79.65,79.65,0,0,0,10.49,0C515,29.87,522,36.82,522,49.05ZM500.64,67.86a1,1,0,0,0,1.12,1c7.05-.24,9.68-3.19,9.71-10.52l0-9.34c0-7-2.66-9.82-9.63-10.11a1,1,0,0,0-1.12,1Z"/><path class="ae8d9293-1897-46be-8250-f45040ee265b" d="M524.77,68.75a1.32,1.32,0,0,1,.23-1.61l7.06-4.82c.83-.54,1.5-.33,1.72.48s1.25,6.32,8.14,6.34c3.52,0,6-1.93,6-4.62,0-6-21.25-6.25-21.18-21.71,0-7.73,6.34-12.81,15.56-12.78,8.76,0,13,6.22,14.79,8.51a1.11,1.11,0,0,1-.23,1.62l-6.38,4.75a1.81,1.81,0,0,1-1.06.46c-.37,0-.67-.27-.89-1.21-.73-3.63-3.72-5.19-6.79-5.2-2.18,0-4.51,1.53-4.52,3.82,0,8.6,21.25,6.92,21.19,22.25,0,7.39-7,13.62-16.84,13.58C533.64,78.59,527.44,74.74,524.77,68.75Z"/><path class="ae8d9293-1897-46be-8250-f45040ee265b" d="M576.28,41.27c4.21,0,7,3.19,7,8.28,0,4.53-2.31,8.28-7,8.28-4.24,0-7-3.16-7-8.28S572,41.27,576.28,41.27Zm0,13.28c2,0,3.19-1.9,3.19-5s-1.15-5-3.19-5-3.19,1.9-3.19,5S574.24,54.55,576.28,54.55Z"/><path class="ae8d9293-1897-46be-8250-f45040ee265b" d="M589.52,44.36a.36.36,0,0,0-.4.35v2.91c0,.22.16.29.4.26a13.55,13.55,0,0,0,3.42-.84c.26-.1.37.16.37.51v2.82a.33.33,0,0,1-.37.33,8.11,8.11,0,0,0-1.1-.19,2.37,2.37,0,0,0-.68.1l-1.64.37a.48.48,0,0,0-.4.45v4.39a10.32,10.32,0,0,0,.37,1.59.33.33,0,0,1-.37.33h-3.66a.34.34,0,0,1-.37-.33,10.32,10.32,0,0,0,.37-1.59V43.24a10.22,10.22,0,0,0-.37-1.6.33.33,0,0,1,.37-.33h9.24c.23,0,.39.1.36.33l-.52,3.22c0,.18,0,.39-.29.39a6.55,6.55,0,0,0-3-.89Z"/><path class="ae8d9293-1897-46be-8250-f45040ee265b" d="M569.15,74.19C593.24,73.09,640.81,64,640.81,64q-33,2.23-66,3.81a6,6,0,0,0-5.68,6.28Z"/><path class="ae8d9293-1897-46be-8250-f45040ee265b" d="M358.18,74.19C334.09,73.09,286.51,64,286.51,64c18.81,1.27,52.38,3.07,66,3.78a6,6,0,0,1,5.67,6.31Z"/><path class="ae8d9293-1897-46be-8250-f45040ee265b" d="M589.6,178.08c-9-.87-20.39-5-27-6-8.74-1.23-67.93-3.37-98.92-3.37s-90.17,2.14-98.91,3.37c-6.63.94-18,5.11-27,6s-33.74,2.73-52,4.66c0,0,43.74.7,52.75-.23s18.42-4.6,30-5.45,58.81-2.31,95.2-2.49c36.4.18,83.72,1.65,95.21,2.49s21,4.51,30,5.45,52.75.23,52.75.23C623.34,180.81,598.59,179,589.6,178.08Z"/><path class="ae8d9293-1897-46be-8250-f45040ee265b" d="M73.69,130.08c11.59-3.3,25.52-4.84,37.63.29-1.84-2.12-3.65-4-5.2-6.05-.89-1.18-2-2.72-1.9-4,.25-3.75-2-4.6-4.88-5.26-10.38-2.35-33.55-5-50.42,7.38,6-1.1,19.75-6.09,39.22-2.82C88.18,119.91,79.1,126.52,73.69,130.08Z"/><path class="ae8d9293-1897-46be-8250-f45040ee265b" d="M86.19,98.33l-12,2.81c11.66,3.18,24.72,0,34.85,10.24-2.65-5.2-9.31-17.94-21.2-22.33s-26.86-3.14-40.19.67c-2.69.77-5.31,1.82-8,2.74C39.73,92.8,67.93,88.28,86.19,98.33Z"/><path class="ae8d9293-1897-46be-8250-f45040ee265b" d="M117.86,152.69c-1-1-2.37-2.51-2.32-3.73.27-5.92-7.8-12-26.39-11.4s-35.7,6.17-53.42,17.17c9.65-5.33,33.27-8.25,51.2-8.39L76.77,154.4c15.67-6.81,29.66-6,44.91,2.36C121.86,156.49,119.13,154,117.86,152.69Z"/><path class="ae8d9293-1897-46be-8250-f45040ee265b" d="M65.13,53.8c-7.74-1.29-21.88,4.9-21.88,4.9,14-.48,31.87,3,43.77,5.67Z"/><path class="ae8d9293-1897-46be-8250-f45040ee265b" d="M174.56,104.63c-2.08-1.88-3.8-3.68-5.78-5.14a30.59,30.59,0,0,0-6.14-3.56,33,33,0,0,0-5.21-.58S168.88,105.85,174.56,104.63Z"/><path class="ae8d9293-1897-46be-8250-f45040ee265b" d="M151.55,109.76c1.55,1.69,2.26,4.15,3.34,6.27l-.74.37L137.35,108c-.23.24,13.81,13.72,20.71,15.64a8.32,8.32,0,0,0,3.86.42c5.23-1.19,10.39-2.73,15.63-3.88a63.71,63.71,0,0,1,12.19-2c4.92-.1,9.13,2.27,12.3,6.07a11.63,11.63,0,0,1,3,8.51c-5.26-3.8-8.46-9.06-14.67-10.22s-11.19,1.29-16.54,3.93c2.94,1.73,6.14,2.75,8.09,4.9,7.87,8.66,17.71,13.22,28.9,15.81,4.84,1.12,9.39,3.53,14.13,5.38,4.2-18.16,3.74-31,1-38.29,0,0-3,13.72-14,14.72,2.3-3.48,1.23-6.19,1.23-6.19-15.65-4-16.88-12.07-16.88-12.07,3.16,3.64,6.38,2.56,6.38,2.56S182.2,75.64,167.42,66,133.84,50,118.29,35.15C124,48,134.8,54.51,147.17,61.44c17.24,10.18,23.67,20.43,23.67,20.43A130.82,130.82,0,0,0,154.5,71.26C145,66.09,133.43,61.62,128.45,61c-25-3.32-62-28.37-62-28.37s20.08,26,61.05,43.51c8.46,3.31,17,6.4,25.51,9.59,21.3,5.65,30.47,20.88,34.78,19.34-.7.58-18.5,12.54-36.89-5.3-25.16-15-66-25.7-76.42-29-.55-.17-1.12-.31-1.69-.46a109.58,109.58,0,0,0,12.42,8c12,6.94,24.24,13,37.7,16.76,7.43,2.06,14.46,5.7,21.48,9A24,24,0,0,1,151.55,109.76Z"/><path class="ae8d9293-1897-46be-8250-f45040ee265b" d="M212,167.11a18.88,18.88,0,0,1-3,5.84,45.13,45.13,0,0,1-5.34,4.63c2.35,1,4.41,2,6.57,2.69a8.19,8.19,0,0,0,11-8.11c0-3.07-.45-6.14-.35-9.2.07-2.22.59-4.34-1.83-5.73-1.87-1.07-3.56-3.07-5.5-3.32-17-2.93-30.41-13.79-30.41-13.79s-5.32,3.9-7.37,9.44c-5.9-6.17-3.47-15.61-3.47-15.61-19.09.29-32.57-11-45.95-23,2.13,6,4.17,12,7.41,17.18,4.77,7.7,11,14.1,19.76,17.67,7,2.84,13.6,6.55,20.51,9.56,4.8,2.1,9.8,3.76,14.78,5.44a62.87,62.87,0,0,0,6.59,1.47c.05.32.09.64.13,1l-9.87,2.36C194.39,171.65,202.92,172.06,212,167.11Z"/><path class="ae8d9293-1897-46be-8250-f45040ee265b" d="M176.44,142.36c.22-1.93,4.3-6.12,4.3-6.12l-3.87-2.8C174.4,137,176.44,142.36,176.44,142.36Z"/><path class="ae8d9293-1897-46be-8250-f45040ee265b" d="M235.3,175.6l-1.41.49h0l1.4-.52h0c-.49-1.32-1-2.6-1.35-3.82l2.65.31.78-5.27c.19-1.24,4.52-30.65,2.2-45.9-2.52-16.53-10.94-23.41-11.29-23.69l-6.05-4.81-2.56,7.29a25.89,25.89,0,0,1-3,6.43c-1.67-1-5.48-4.47-8.73-10.39-.47-.86-1-2-1.7-3.31-4-7.93-10.59-21.2-24.54-32.94-12.16-10.22-23.85-16.56-33.27-21.67-2.89-1.57-5.63-3.06-8.06-4.49-9.78-5.74-35.14-22.8-38-24.76L89.7,0,94,14.65a241.76,241.76,0,0,0,8.38,23.48C81.75,27.32,54.54,7.87,54.25,7.66L44.36.57l1.21,12.11c1.11,11,5.38,22.34,8.3,29C32,45.76,16.79,60.51,16.14,61.15L7.16,70l12.59.57c6.85.31,14.94,3,21.41,5.59A90.42,90.42,0,0,0,8.93,98.58L0,108.29l13.19-.49a147.45,147.45,0,0,1,19.58.46,96.41,96.41,0,0,0-21.53,25L4,145.71l13.72-4.44c.08,0,1.13-.36,2.81-.85-14.77,16.51-18.2,33.28-18.35,34L.2,184.39l9.38-3.77a147.72,147.72,0,0,1,36.81-8.21,58.29,58.29,0,0,0-6,5L28.75,188.7l16.09-1.85a214.29,214.29,0,0,1,21.46-1.08c14.74,0,26.66,1.64,34.48,4.74a293.64,293.64,0,0,0,40.31,12.55c8.42,2.21,20.42,2.19,20.42,2.19s-5.68-12.68-6.72-15.21c-2.89-7-5.75-15.53-6.22-21.63,9.12,2.7,17.46,7,20.71,10.66,4.83,5.5,9.24,14.87,9.29,15l3.66,7.81s5-9.36,9.5-7.92c2.17.7,2.59,5.08,1.72,9.44a43.19,43.19,0,0,1-3.25,9.35l11.11-4.21c8.45-3.2,13.91-8.19,18.73-12.59,4.3-3.92,8-7.32,13.29-9.07l5.16-1.71L236.84,180C236.36,178.44,235.82,177,235.3,175.6Zm-42,11.12c-5.06-.68-9.78,5-9.78,5s-4.73-10.1-10.14-16.26-19.12-11.78-29.61-13.9c-4.06,11,9.09,37.68,9.09,37.68.43,1.36-25.26-4-50.08-13.82-21-8.34-58.6-4-58.6-4,6.77-6.54,16.29-11.46,24-14.7-32.45-2.5-60.64,8.82-60.64,8.82s5.15-26.36,32.36-44.76C30.6,131.31,16,136,16,136c11.82-20.2,30.55-30.92,30.55-30.92S35.73,101.44,13,102.3C32.54,81,56.39,77.23,56.39,77.23S35.76,65.79,20,65.07c0,0,17.83-17.55,42.12-18.8,0,0-9.42-17.61-11.07-34.14,0,0,44,31.53,63.82,37.43C107.38,40.64,99.29,13.1,99.29,13.1S127.11,31.87,137.62,38s25.11,12.63,40.58,25.64,21.56,28.48,25,34.67c4.5,8.21,11.14,14.35,14.83,13.42,3.34-.83,5.56-6.58,6.86-10.28,0,0,7.06,5.61,9.28,20.22s-2.2,44.26-2.2,44.26-2.62-.3-4.3-.59c-.59,5.56,2.19,10.64,4,16.25-12.93,4.29-17.48,16.15-32.24,21.74C201.91,196.19,195.81,187.06,193.33,186.72Z"/></g></svg>